<?xml version="1.0" encoding="utf-8"?>
<!-- Generator: Adobe Illustrator 25.0.0, SVG Export Plug-In . SVG Version: 6.00 Build 0)  -->
<svg version="1.1" id="Layer_1" xmlns="http://www.w3.org/2000/svg" xmlns:xlink="http://www.w3.org/1999/xlink" x="0px" y="0px"
	 viewBox="0 0 800 229" enable-background="new 0 0 800 229" xml:space="preserve">
<g>
	<defs>
		<rect id="SVGID_1_" width="800" height="229"/>
	</defs>
	<clipPath id="SVGID_2_">
		<use xlink:href="#SVGID_1_"  overflow="visible"/>
	</clipPath>
	<path clip-path="url(#SVGID_2_)" fill="#3A3C48" d="M77.4,85v-4.2c0-0.6,0-1.1-0.1-1.4c-0.1-0.4-0.2-0.7-0.4-0.9s-0.4-0.4-0.7-0.5
		c-0.3-0.1-0.6-0.1-1-0.1c-0.5,0-1,0.1-1.4,0.3c-0.4,0.2-0.7,0.4-0.9,0.7h-0.1L72.6,78h-0.8v7h1.1v-4.8c0.1-0.4,0.4-0.7,0.7-1
		c0.3-0.3,0.7-0.4,1.2-0.4c0.6,0,0.9,0.2,1.2,0.6c0.2,0.4,0.3,0.9,0.3,1.6v4H77.4z M68.5,79.2c0.3,0.3,0.4,0.8,0.4,1.5h-3.5
		c0.1-0.7,0.3-1.2,0.6-1.5s0.8-0.4,1.3-0.4C67.9,78.8,68.3,79,68.5,79.2 M69.4,83.6c-0.2,0.1-0.4,0.3-0.7,0.4s-0.6,0.2-1,0.2
		c-0.4,0-0.8-0.1-1-0.2c-0.3-0.1-0.5-0.3-0.7-0.5c-0.2-0.2-0.3-0.5-0.4-0.8s-0.1-0.7-0.1-1.1h4.5c0.1-0.4,0.1-0.7,0.1-1
		c0-0.6-0.1-1.1-0.2-1.4c-0.2-0.4-0.4-0.6-0.6-0.8s-0.5-0.3-0.9-0.4c-0.3-0.1-0.6-0.1-1-0.1c-1,0-1.8,0.3-2.3,0.9s-0.8,1.5-0.8,2.7
		c0,0.6,0.1,1.1,0.2,1.5c0.1,0.4,0.3,0.8,0.6,1.2c0.3,0.3,0.6,0.6,1,0.7c0.4,0.2,0.9,0.3,1.4,0.3c0.5,0,0.9-0.1,1.4-0.2
		c0.4-0.1,0.8-0.3,1.1-0.5L69.4,83.6z M62.6,85v-4.2c0-0.6,0-1.1-0.1-1.4c-0.1-0.4-0.2-0.7-0.4-0.9c-0.2-0.2-0.4-0.4-0.7-0.5
		c-0.3-0.1-0.6-0.1-1-0.1c-0.5,0-0.9,0.1-1.3,0.3s-0.6,0.4-0.9,0.7h-0.1v-3.6H57V85h1.1v-4.7c0.1-0.4,0.3-0.8,0.7-1.1
		c0.4-0.3,0.8-0.4,1.2-0.4c0.3,0,0.6,0,0.7,0.1c0.2,0.1,0.3,0.2,0.5,0.4c0.1,0.2,0.2,0.4,0.2,0.7c0,0.3,0.1,0.6,0.1,1v4H62.6z
		 M50.5,78L49,82l-0.3,1.4h0l-0.2-1.4L47,78h-1.2l2.4,7.2h0.5l1.8-4.6l0.3-1.2h0l0.3,1.1l1.8,4.6h0.5l2.4-7.2h-1.1l-1.2,4.1
		l-0.3,1.4h0l-0.3-1.3L51.3,78H50.5z M36.4,86.6l0.9,0.4l5.1-11.5L41.5,75L36.4,86.6z M29.1,79h1.1v6h1.1v-6h1.9v-1h-1.9v-0.2
		c0-0.3,0-0.5,0-0.7s0.1-0.4,0.1-0.5c0.1-0.1,0.2-0.3,0.3-0.3c0.1-0.1,0.3-0.1,0.6-0.1c0.2,0,0.3,0,0.5,0c0.2,0,0.4,0.1,0.6,0.2
		l0.3-0.9c-0.3-0.1-0.5-0.2-0.7-0.2c-0.2,0-0.5-0.1-0.8-0.1c-0.4,0-0.7,0-0.9,0.1c-0.3,0.1-0.5,0.2-0.6,0.4
		c-0.2,0.2-0.3,0.5-0.3,0.8c-0.1,0.3-0.1,0.7-0.1,1.1V78h-1.1V79z M26.3,76.4c0.1,0.1,0.3,0.2,0.6,0.2c0.2,0,0.4-0.1,0.6-0.2
		c0.2-0.1,0.2-0.3,0.2-0.5c0-0.2-0.1-0.4-0.2-0.6c-0.2-0.2-0.4-0.2-0.6-0.2c-0.2,0-0.4,0.1-0.6,0.2s-0.2,0.3-0.2,0.6
		C26.1,76.1,26.1,76.3,26.3,76.4 M26.3,85h1.1v-7h-1.1V85z"/>
	<path clip-path="url(#SVGID_2_)" fill="#33ACE3" d="M37.9,63.4c-0.3,0-0.7,0-1,0c-0.6,0-1.4-0.2-1.4-0.6c0-0.1,0.3-0.3,0.7-0.3
		c0.1,0,0.2,0,0.3,0c0.1,0,0.2,0.2,0.3,0.4h0c0.2-0.2,0.3-0.4,0.3-0.6s-0.2-0.5-0.6-0.5c-0.4,0-0.8,0.2-1.2,0.6
		c-0.3,0.3-0.5,0.6-0.5,0.9c0,0.4,0.3,0.7,0.8,0.9v0c-0.2,0.1-0.4,0.2-0.4,0.3L35,64.8l0,0c0.7-0.3,1.6-0.6,2.5-0.7
		C37.7,63.9,37.8,63.6,37.9,63.4L37.9,63.4z M36.1,61.2c0.6-0.6,0.8-1,0.9-1.6c0-0.4,0.1-1,0.1-1.6c0-2.3,0-4.7-0.3-6.9l-0.1,0
		c-0.3,0.3-0.7,0.7-1,1c0.2,1.7,0.4,4.3,0.4,6.1v1c0,0.6,0,1.3-0.1,2L36.1,61.2z M38.5,64.6L38.5,64.6c-1.1,0.4-2.5,0.9-3.9,1.3
		l-0.1,0.7l0,0c1.2-0.4,2.4-0.8,3.6-1.3L38.5,64.6z M29.1,58.3c0,0.3,0,0.6,0,0.7c0,1.4,0.8,2.1,1.9,2.1c0.9,0,1.8-0.4,2.7-0.9
		c0.3-0.5,0.4-1.1,0.4-1.7c0-0.8-0.4-1.6-1-2.3c-0.7-0.8-1.5-1.5-2.3-2l-0.1,0c-0.2,0.4-0.5,0.9-0.5,1.1c0,0.1,0.1,0.2,0.3,0.4
		c0.7,0.4,1.4,0.9,2,1.5c0.6,0.6,0.9,1.3,0.9,1.9c0,0.1-0.1,0.2-0.2,0.2c-0.7,0.4-1.4,0.6-2.1,0.6c-1.2,0-1.6-0.7-1.6-1.5H29.1z
		 M29.7,51.9c0.4,0.3,0.8,0.6,1.2,1c0.3-0.3,0.6-0.6,0.8-1c-0.4-0.4-0.8-0.8-1.2-1C30.3,51.2,30,51.6,29.7,51.9 M32.2,48.6
		L32.2,48.6c-1.1,0.4-2.5,0.9-3.9,1.3l-0.1,0.7l0,0c1.2-0.4,2.4-0.8,3.6-1.3L32.2,48.6z M26.2,61.2c0.6-0.6,0.8-1,0.9-1.6
		c0-0.4,0.1-1,0.1-1.6c0-2.3,0-4.7-0.3-6.9l-0.1,0c-0.3,0.3-0.7,0.7-1,1c0.2,1.7,0.4,4.3,0.4,6.1v1c0,0.6,0,1.3-0.1,2L26.2,61.2z"/>
	<path clip-path="url(#SVGID_2_)" fill="#3A3C48" d="M237.4,78c-0.3-0.1-0.6-0.1-0.9-0.1c-0.4,0-0.7,0.1-0.9,0.3
		c-0.2,0.2-0.5,0.4-0.6,0.7h-0.1l-0.2-0.9h-0.8v7h1.1v-4.9c0.1-0.3,0.2-0.6,0.4-0.8c0.2-0.2,0.6-0.3,1-0.3c0.3,0,0.5,0,0.8,0.1
		L237.4,78z M230.6,79.2c0.3,0.3,0.4,0.8,0.4,1.5h-3.5c0.1-0.7,0.3-1.2,0.6-1.5c0.3-0.3,0.8-0.4,1.3-0.4
		C230,78.8,230.4,79,230.6,79.2 M231.5,83.6c-0.2,0.1-0.4,0.3-0.7,0.4c-0.3,0.1-0.6,0.2-1,0.2c-0.4,0-0.8-0.1-1-0.2
		c-0.3-0.1-0.5-0.3-0.7-0.5c-0.2-0.2-0.3-0.5-0.4-0.8s-0.1-0.7-0.1-1.1h4.5c0.1-0.4,0.1-0.7,0.1-1c0-0.6-0.1-1.1-0.2-1.4
		c-0.2-0.4-0.4-0.6-0.6-0.8c-0.3-0.2-0.5-0.3-0.9-0.4c-0.3-0.1-0.6-0.1-1-0.1c-1,0-1.8,0.3-2.3,0.9c-0.5,0.6-0.8,1.5-0.8,2.7
		c0,0.6,0.1,1.1,0.2,1.5c0.1,0.4,0.3,0.8,0.6,1.2s0.6,0.6,1,0.7c0.4,0.2,0.9,0.3,1.4,0.3c0.5,0,0.9-0.1,1.4-0.2
		c0.4-0.1,0.8-0.3,1.1-0.5L231.5,83.6z M220.5,78h-1.3l3,7.2h0.5l3-7.2h-1.2l-1.6,4.1l-0.3,1.4h0l-0.4-1.3L220.5,78z M217.2,79.2
		c0.3,0.3,0.4,0.8,0.4,1.5h-3.5c0.1-0.7,0.3-1.2,0.6-1.5c0.3-0.3,0.8-0.4,1.3-0.4C216.6,78.8,217,79,217.2,79.2 M218.1,83.6
		c-0.2,0.1-0.4,0.3-0.7,0.4c-0.3,0.1-0.6,0.2-1,0.2c-0.4,0-0.8-0.1-1-0.2c-0.3-0.1-0.5-0.3-0.7-0.5c-0.2-0.2-0.3-0.5-0.4-0.8
		s-0.1-0.7-0.1-1.1h4.5c0.1-0.4,0.1-0.7,0.1-1c0-0.6-0.1-1.1-0.2-1.4c-0.2-0.4-0.4-0.6-0.6-0.8s-0.5-0.3-0.9-0.4
		c-0.3-0.1-0.6-0.1-1-0.1c-1,0-1.8,0.3-2.3,0.9s-0.8,1.5-0.8,2.7c0,0.6,0.1,1.1,0.2,1.5c0.1,0.4,0.3,0.8,0.6,1.2s0.6,0.6,1,0.7
		c0.4,0.2,0.9,0.3,1.4,0.3c0.5,0,0.9-0.1,1.4-0.2c0.4-0.1,0.8-0.3,1.1-0.5L218.1,83.6z M211.4,85v-4.2c0-0.6,0-1.1-0.1-1.4
		c-0.1-0.4-0.2-0.7-0.4-0.9c-0.2-0.2-0.4-0.4-0.7-0.5c-0.3-0.1-0.6-0.1-1-0.1c-0.5,0-1,0.1-1.4,0.3c-0.4,0.2-0.7,0.4-0.9,0.7h-0.1
		l-0.2-0.9h-0.8v7h1.1v-4.8c0.1-0.4,0.4-0.7,0.7-1c0.3-0.3,0.7-0.4,1.2-0.4c0.6,0,0.9,0.2,1.2,0.6c0.2,0.4,0.3,0.9,0.3,1.6v4H211.4z
		 M202.5,79.2c0.3,0.3,0.4,0.8,0.4,1.5h-3.5c0.1-0.7,0.3-1.2,0.6-1.5c0.3-0.3,0.8-0.4,1.3-0.4C201.8,78.8,202.2,79,202.5,79.2
		 M203.3,83.6c-0.2,0.1-0.4,0.3-0.7,0.4c-0.3,0.1-0.6,0.2-1,0.2c-0.4,0-0.8-0.1-1-0.2c-0.3-0.1-0.5-0.3-0.7-0.5
		c-0.2-0.2-0.3-0.5-0.4-0.8s-0.1-0.7-0.1-1.1h4.5c0.1-0.4,0.1-0.7,0.1-1c0-0.6-0.1-1.1-0.2-1.4c-0.2-0.4-0.4-0.6-0.6-0.8
		s-0.5-0.3-0.9-0.4c-0.3-0.1-0.6-0.1-1-0.1c-1,0-1.8,0.3-2.3,0.9s-0.8,1.5-0.8,2.7c0,0.6,0.1,1.1,0.2,1.5c0.1,0.4,0.3,0.8,0.6,1.2
		s0.6,0.6,1,0.7c0.4,0.2,0.9,0.3,1.4,0.3c0.5,0,0.9-0.1,1.4-0.2c0.4-0.1,0.8-0.3,1.1-0.5L203.3,83.6z M196.6,85v-4.2
		c0-0.6,0-1.1-0.1-1.4c-0.1-0.4-0.2-0.7-0.4-0.9c-0.2-0.2-0.4-0.4-0.7-0.5c-0.3-0.1-0.6-0.1-1-0.1c-0.5,0-0.9,0.1-1.3,0.3
		c-0.3,0.2-0.6,0.4-0.9,0.7h-0.1v-3.6H191V85h1.1v-4.7c0.1-0.4,0.3-0.8,0.7-1.1c0.4-0.3,0.8-0.4,1.2-0.4c0.3,0,0.6,0,0.7,0.1
		c0.2,0.1,0.3,0.2,0.5,0.4c0.1,0.2,0.2,0.4,0.2,0.7c0,0.3,0.1,0.6,0.1,1v4H196.6z M184.4,78l-1.5,4l-0.3,1.4h0l-0.2-1.4l-1.4-4.1
		h-1.2l2.4,7.2h0.5l1.8-4.6l0.3-1.2h0l0.3,1.1l1.8,4.6h0.5l2.4-7.2h-1.1l-1.2,4.1l-0.3,1.4h0l-0.3-1.3l-1.6-4.1H184.4z"/>
	<path clip-path="url(#SVGID_2_)" fill="#33ACE3" d="M200.1,50.4c-2.2,0.7-4.1,1.4-5.3,2c-0.4,0.2-0.6,0.4-0.7,0.6
		c-0.1,0.2-0.2,0.4-0.2,0.6c0,0.3,0.1,0.7,0.4,0.9c1.6,1.2,2.5,2.2,2.9,2.8c0.4,0.5,0.7,1,0.7,1.5c0,0.1-0.2,0.3-0.5,0.5
		c-0.7,0.4-1.6,0.5-2.6,0.5h-0.6c-0.5,0-0.7,0.4-0.7,0.6c0,0.3,0.1,0.7,0.7,0.7h0.4c1.8,0,2.8-0.4,3.4-0.9c0.4-0.4,0.6-1.1,0.6-2
		c0-1-1-2.3-2.5-3.5l0.2-0.5l-1.6-0.6v0c1.1-0.5,2.2-0.9,3.2-1.3c0.5-0.2,1.1-0.4,1.6-0.5C199.7,51.3,200,50.9,200.1,50.4
		L200.1,50.4z M195.5,48.2c0-0.2,0.3-0.4,0.6-0.4c0.4,0,0.7,0.5,0.7,1c0,0.1,0,0.1,0,0.2C196,48.8,195.5,48.6,195.5,48.2
		 M197.5,49.2c-0.1-0.1-0.2-0.1-0.4-0.1c0-0.1,0.1-0.3,0.1-0.4c0-1-0.5-1.4-0.8-1.4c-0.6,0-1.3,0.6-1.3,1.3c0,0.6,0.4,0.9,1.2,1
		c-0.6,0.4-1.6,0.8-2.4,1.2l0,0c0.1,0.1,0.8,0.2,1,0.2c0.5-0.2,1.5-0.6,2-1.3c0.1,0,0.2,0.1,0.2,0.1L197.5,49.2z M189.9,59.7
		c-0.5,0-0.7,0.4-0.7,0.6c0,0.3,0.1,0.7,0.7,0.7h0.2c0.9,0,1.6-0.5,1.9-1h0c0.3,0.7,1,1,1.9,1h0.2v-1.2H194c-1.1,0-1.4-0.7-1.4-1.1
		c0-3,0-5.4-0.2-7.7l0,0l-0.9,0.9l0,0.5c0.1,2.2,0.3,4,0.3,6c0,0.7-0.2,1-0.5,1.2c-0.3,0.2-0.7,0.3-1.1,0.3H189.9z M192.6,47.7
		c-0.1,0.2-0.2,0.3-0.4,0.5c0.2,0.5,0.3,0.8,0.3,1c0,0.1-0.2,0.1-0.2,0.1c-0.1,0-0.2,0-0.3-0.1c-0.2-0.1-0.3-0.4-0.4-0.9l0,0
		c-0.1,0.1-0.2,0.2-0.3,0.2l0,0.7c0,0.2-0.1,0.4-0.4,0.4c-0.2,0-0.3-0.2-0.3-0.5c0-0.2,0-0.3,0.1-0.5l0,0c-0.1,0.1-0.2,0.1-0.3,0.2
		c-0.1,0.2-0.1,0.4-0.1,0.6c0,0.3,0,0.5,0.1,0.7c0.1,0.2,0.3,0.3,0.5,0.3c0.3,0,0.6-0.2,0.8-0.5h0c0.2,0.1,0.4,0.2,0.6,0.2
		c0.2,0,0.4-0.1,0.5-0.5c0.1-0.2,0-0.4,0-0.5C193,48.8,192.9,48.2,192.6,47.7L192.6,47.7z M193.2,46.4L193.2,46.4
		c-0.9,0.3-2,0.7-3.1,1.1l-0.1,0.6l0,0c1-0.3,2-0.7,2.9-1L193.2,46.4z M185.7,57.8c0.4,0.5,0.8,1,1.2,1.5c0.3,0.4,0.3,0.6,0.3,0.8
		c0,0.4-0.3,0.7-0.5,0.7c-0.9,0-1.5-1-1.5-1.7C185.2,58.7,185.3,58.4,185.7,57.8L185.7,57.8z M183,59.7c-0.1,0-0.4,0-0.6-0.1
		c-0.4-0.1-0.7-0.4-0.7-1V58c0-2.4,0-4.9-0.2-7.1l-0.1,0c-0.3,0.2-0.6,0.5-0.9,0.9c0.1,2.1,0.3,4,0.3,5.9c0,1.4,0,2.1,0.6,2.7
		c0.4,0.4,0.9,0.6,1.5,0.6c0.8,0,1.3-0.4,1.7-0.9h0c0.2,1.2,1.1,2.1,2.1,2.1c0.6,0,1.2-0.7,1.2-2V60l0,0c0.6,0.7,1.2,1,2,1h0.1v-1.2
		h-0.1c-0.7,0-1.3-0.3-2-1.1c-0.7-0.7-1.3-1.4-1.9-2.2h-0.1c-0.4,0.6-0.6,1-0.9,1.5c-0.4,0.7-0.6,1.2-1.1,1.6
		C183.6,59.7,183.2,59.7,183,59.7 M188.1,51L188.1,51c-1.1,0.4-2.5,0.9-3.9,1.3l-0.1,0.7l0,0c1.2-0.4,2.4-0.8,3.6-1.3L188.1,51z"/>
	<path clip-path="url(#SVGID_2_)" fill="#3A3C48" d="M365,85v-4.2c0-0.6,0-1.1-0.1-1.4c-0.1-0.4-0.2-0.7-0.4-0.9
		c-0.2-0.2-0.4-0.4-0.7-0.5c-0.3-0.1-0.6-0.1-1-0.1c-0.5,0-1,0.1-1.4,0.3c-0.4,0.2-0.7,0.4-0.9,0.7h-0.1l-0.2-0.9h-0.8v7h1.1v-4.8
		c0.1-0.4,0.4-0.7,0.7-1c0.3-0.3,0.7-0.4,1.2-0.4c0.6,0,0.9,0.2,1.2,0.6s0.3,0.9,0.3,1.6v4H365z M356.1,79.2
		c0.3,0.3,0.4,0.8,0.4,1.5H353c0.1-0.7,0.3-1.2,0.6-1.5c0.3-0.3,0.8-0.4,1.3-0.4C355.4,78.8,355.8,79,356.1,79.2 M356.9,83.6
		c-0.2,0.1-0.4,0.3-0.7,0.4c-0.3,0.1-0.6,0.2-1,0.2c-0.4,0-0.8-0.1-1-0.2c-0.3-0.1-0.5-0.3-0.7-0.5c-0.2-0.2-0.3-0.5-0.4-0.8
		c-0.1-0.3-0.1-0.7-0.1-1.1h4.5c0.1-0.4,0.1-0.7,0.1-1c0-0.6-0.1-1.1-0.2-1.4c-0.2-0.4-0.4-0.6-0.6-0.8c-0.3-0.2-0.5-0.3-0.9-0.4
		c-0.3-0.1-0.6-0.1-1-0.1c-1,0-1.8,0.3-2.3,0.9c-0.5,0.6-0.8,1.5-0.8,2.7c0,0.6,0.1,1.1,0.2,1.5c0.1,0.4,0.3,0.8,0.6,1.2
		c0.3,0.3,0.6,0.6,1,0.7c0.4,0.2,0.9,0.3,1.4,0.3c0.5,0,0.9-0.1,1.4-0.2c0.4-0.1,0.8-0.3,1.1-0.5L356.9,83.6z M350.2,85v-4.2
		c0-0.6,0-1.1-0.1-1.4c-0.1-0.4-0.2-0.7-0.4-0.9c-0.2-0.2-0.4-0.4-0.7-0.5c-0.3-0.1-0.6-0.1-1-0.1c-0.5,0-0.9,0.1-1.3,0.3
		c-0.3,0.2-0.6,0.4-0.9,0.7h-0.1v-3.6h-1.1V85h1.1v-4.7c0.1-0.4,0.3-0.8,0.7-1.1c0.4-0.3,0.8-0.4,1.2-0.4c0.3,0,0.6,0,0.7,0.1
		c0.2,0.1,0.3,0.2,0.5,0.4c0.1,0.2,0.2,0.4,0.2,0.7c0,0.3,0.1,0.6,0.1,1v4H350.2z M338,78l-1.5,4l-0.3,1.4h0l-0.2-1.4l-1.4-4.1h-1.2
		l2.4,7.2h0.5l1.8-4.6l0.3-1.2h0l0.3,1.1l1.8,4.6h0.5l2.4-7.2h-1.1l-1.2,4.1l-0.3,1.4h0l-0.3-1.3l-1.6-4.1H338z"/>
	<path clip-path="url(#SVGID_2_)" fill="#33ACE3" d="M343.5,59.8c-0.5,0-0.7,0.4-0.7,0.6c0,0.3,0.1,0.7,0.7,0.7h0.1
		c0.4,0,0.8-0.1,1.2-0.3c0.4-0.2,0.7-0.6,0.9-1.1c0.3-0.6,0.4-1.4,0.4-2.5c0-1.1-0.1-2.3-0.1-3.4c0.2-0.2,0.4-0.3,0.6-0.5
		c-0.5-0.8-0.8-1.6-0.8-2.2l-0.1,0c-0.2,0.2-0.4,0.4-0.5,0.5c-0.2,0.2-0.3,0.4-0.3,0.7c0,0.4,0.1,0.8,0.1,1.2
		c0.2,1.8,0.3,3.5,0.3,5.1c0,0.5-0.2,0.9-0.5,1.1c-0.4,0.2-0.8,0.3-1.1,0.3H343.5z M347.4,48.5L347.4,48.5c-1.1,0.4-2.5,0.9-3.9,1.3
		l-0.1,0.7l0,0c1.2-0.4,2.4-0.8,3.6-1.3L347.4,48.5z M339.3,57.8c0.4,0.5,0.8,1,1.2,1.5c0.3,0.4,0.3,0.6,0.3,0.9
		c0,0.4-0.3,0.7-0.5,0.7c-0.9,0-1.5-1-1.5-1.7C338.8,58.7,338.9,58.4,339.3,57.8L339.3,57.8z M336.6,59.8c-0.1,0-0.4,0-0.6-0.1
		c-0.4-0.1-0.7-0.4-0.7-1V58c0-2.4,0-4.9-0.2-7.1l-0.1,0c-0.3,0.2-0.6,0.5-0.9,0.9c0.1,2.1,0.3,4,0.3,5.9c0,1.4,0,2.1,0.6,2.7
		c0.4,0.4,0.9,0.6,1.5,0.6c0.8,0,1.3-0.4,1.7-0.9h0c0.2,1.2,1.1,2.1,2.1,2.1c0.6,0,1.2-0.7,1.2-2V60l0,0c0.6,0.7,1.2,1,2,1h0.1v-1.2
		h-0.1c-0.7,0-1.3-0.3-2-1.1c-0.7-0.7-1.3-1.4-1.9-2.2h-0.1c-0.4,0.6-0.6,1-0.9,1.5c-0.4,0.7-0.6,1.2-1.1,1.6
		C337.2,59.7,336.8,59.8,336.6,59.8 M340.5,50.2c-0.1,0.2-0.2,0.3-0.4,0.5c0.2,0.5,0.3,0.8,0.3,1c0,0.1-0.2,0.1-0.2,0.1
		c-0.1,0-0.2,0-0.3-0.1c-0.2-0.1-0.3-0.4-0.4-0.9l0,0c-0.1,0.1-0.2,0.2-0.3,0.2l0,0.7c0,0.2-0.1,0.4-0.4,0.4c-0.2,0-0.3-0.2-0.3-0.5
		c0-0.2,0-0.3,0.1-0.5l0,0c-0.1,0.1-0.2,0.1-0.3,0.2c-0.1,0.2-0.1,0.4-0.1,0.6c0,0.3,0,0.5,0.1,0.7c0.1,0.2,0.3,0.3,0.5,0.3
		c0.3,0,0.6-0.2,0.8-0.5h0c0.2,0.1,0.4,0.2,0.6,0.2c0.2,0,0.4-0.1,0.5-0.5c0.1-0.2,0-0.4,0-0.5C340.8,51.3,340.7,50.7,340.5,50.2
		L340.5,50.2z M341.1,48.9L341.1,48.9c-0.9,0.3-2,0.7-3.1,1.1l-0.1,0.6l0,0c1-0.3,2-0.7,2.9-1L341.1,48.9z"/>
	<path clip-path="url(#SVGID_2_)" fill="#3A3C48" d="M58,174c-0.3-0.1-0.6-0.1-0.9-0.1c-0.4,0-0.7,0.1-0.9,0.3
		c-0.2,0.2-0.5,0.4-0.6,0.7h-0.1l-0.2-0.9h-0.8v7h1.1v-4.9c0.1-0.3,0.2-0.6,0.4-0.8c0.2-0.2,0.5-0.3,1-0.3c0.3,0,0.5,0,0.8,0.1
		L58,174z M49.6,174.8c0.3,0,0.6,0.1,0.9,0.2c0.2,0.1,0.4,0.3,0.6,0.6c0.1,0.2,0.3,0.5,0.3,0.9s0.1,0.7,0.1,1c0,1.8-0.6,2.7-1.9,2.7
		c-0.3,0-0.6-0.1-0.9-0.2c-0.2-0.1-0.4-0.3-0.6-0.6c-0.1-0.2-0.3-0.5-0.3-0.9s-0.1-0.7-0.1-1C47.7,175.7,48.4,174.8,49.6,174.8
		 M46.8,179c0.1,0.5,0.3,0.8,0.6,1.2c0.3,0.3,0.6,0.6,1,0.7c0.4,0.2,0.8,0.3,1.4,0.3c1,0,1.7-0.3,2.3-0.9c0.5-0.6,0.8-1.5,0.8-2.7
		c0-0.6-0.1-1.1-0.2-1.5c-0.1-0.5-0.3-0.8-0.6-1.2c-0.3-0.3-0.6-0.6-1-0.7c-0.4-0.2-0.8-0.3-1.4-0.3c-1,0-1.7,0.3-2.3,0.9
		c-0.5,0.6-0.8,1.5-0.8,2.7C46.6,178.1,46.6,178.6,46.8,179 M41.9,175H43v6h1.1v-6H46v-1h-1.9v-0.2c0-0.3,0-0.5,0-0.7
		c0-0.2,0.1-0.4,0.1-0.5c0.1-0.1,0.2-0.3,0.3-0.3c0.1-0.1,0.3-0.1,0.6-0.1c0.2,0,0.3,0,0.5,0c0.2,0,0.4,0.1,0.6,0.2l0.3-0.9
		c-0.3-0.1-0.5-0.2-0.7-0.2c-0.2,0-0.5-0.1-0.8-0.1c-0.4,0-0.7,0-0.9,0.1c-0.3,0.1-0.5,0.2-0.6,0.4c-0.2,0.2-0.3,0.5-0.3,0.8
		s-0.1,0.7-0.1,1.1v0.4h-1.1V175z M35.7,180c-0.3,0.2-0.6,0.2-1,0.2c-0.4,0-0.7-0.1-1.1-0.2c-0.3-0.1-0.6-0.2-0.8-0.3l-0.3,1
		c0.3,0.1,0.6,0.3,0.9,0.4c0.4,0.1,0.8,0.2,1.4,0.2c0.4,0,0.8-0.1,1.1-0.2c0.3-0.1,0.6-0.3,0.8-0.4c0.2-0.2,0.4-0.4,0.5-0.7
		c0.1-0.3,0.1-0.5,0.1-0.8c0-0.4-0.1-0.8-0.3-1c-0.2-0.3-0.4-0.5-0.6-0.6c-0.2-0.2-0.5-0.3-0.8-0.4c-0.3-0.1-0.6-0.2-0.8-0.3
		c-0.2-0.1-0.5-0.2-0.6-0.4s-0.3-0.3-0.3-0.6c0-0.3,0.1-0.6,0.3-0.7c0.2-0.1,0.5-0.2,0.9-0.2c0.3,0,0.7,0,1,0.1
		c0.3,0.1,0.6,0.2,0.8,0.3l0.3-0.9c-0.3-0.1-0.5-0.2-0.9-0.3c-0.3-0.1-0.8-0.1-1.3-0.1c-0.7,0-1.2,0.2-1.6,0.5
		c-0.4,0.3-0.6,0.8-0.6,1.5c0,0.4,0.1,0.7,0.3,1c0.2,0.2,0.4,0.4,0.6,0.6c0.2,0.2,0.5,0.3,0.8,0.4c0.3,0.1,0.6,0.2,0.8,0.3
		c0.2,0.1,0.5,0.2,0.6,0.4s0.3,0.4,0.3,0.7C36.1,179.5,36,179.8,35.7,180 M27.1,179.8c-0.2-0.2-0.4-0.5-0.4-0.8
		c0-0.2,0.1-0.4,0.2-0.6c0.1-0.2,0.3-0.3,0.5-0.4s0.5-0.1,0.7-0.2c0.3,0,0.6,0,0.8,0c0.1,0,0.3,0,0.4,0c0.1,0,0.3,0,0.4,0v1.2
		c0,0.1-0.1,0.2-0.2,0.4s-0.2,0.2-0.4,0.4c-0.1,0.1-0.3,0.2-0.5,0.3c-0.2,0.1-0.4,0.1-0.7,0.1C27.6,180.1,27.3,180,27.1,179.8
		 M26.3,175.4c0.1-0.1,0.3-0.1,0.5-0.2c0.2-0.1,0.4-0.1,0.5-0.2s0.4-0.1,0.6-0.1c0.2,0,0.4,0,0.5,0c0.5,0,0.9,0.1,1.1,0.3
		c0.2,0.2,0.3,0.6,0.3,1.1c0,0.2,0,0.5,0,0.8c-0.1,0-0.3,0-0.4,0H29c-0.5,0-1,0-1.4,0.1c-0.4,0.1-0.8,0.2-1.1,0.4
		c-0.3,0.2-0.5,0.4-0.7,0.7c-0.2,0.3-0.3,0.6-0.3,1c0,0.3,0.1,0.6,0.2,0.8c0.1,0.2,0.3,0.4,0.4,0.6s0.4,0.3,0.7,0.4s0.5,0.1,0.8,0.1
		c0.3,0,0.6,0,0.8-0.1c0.2-0.1,0.4-0.1,0.6-0.2c0.2-0.1,0.3-0.2,0.5-0.3c0.1-0.1,0.2-0.3,0.3-0.4h0.1l0.3,1H31
		c-0.1-0.3-0.1-0.5-0.2-0.9c0-0.3,0-0.6,0-1c0-0.5,0-1,0-1.5s0-1.1,0-1.6c0-0.3,0-0.5-0.1-0.8c-0.1-0.3-0.2-0.5-0.3-0.7
		c-0.2-0.2-0.4-0.4-0.7-0.5c-0.3-0.1-0.7-0.2-1.2-0.2c-0.5,0-1,0.1-1.5,0.2c-0.5,0.1-0.9,0.3-1.2,0.5L26.3,175.4z"/>
	<path clip-path="url(#SVGID_2_)" fill="#33ACE3" d="M38.1,145.6c-0.3,0-0.7,0-1,0c-0.6,0-1.4-0.2-1.4-0.6c0-0.1,0.3-0.3,0.7-0.3
		c0.1,0,0.2,0,0.3,0c0.1,0,0.2,0.2,0.3,0.4h0c0.2-0.2,0.3-0.4,0.3-0.6s-0.2-0.5-0.6-0.5c-0.4,0-0.8,0.2-1.2,0.6
		c-0.3,0.3-0.5,0.6-0.5,0.9c0,0.4,0.3,0.7,0.8,0.8v0c-0.2,0.1-0.4,0.2-0.5,0.3l-0.2,0.4l0,0c0.7-0.3,1.6-0.6,2.5-0.7
		C37.8,146.1,37.9,145.9,38.1,145.6L38.1,145.6z M36.4,157.2c0.6-0.6,0.8-1,0.9-1.6c0-0.4,0.1-1,0.1-1.6c0-2.3,0-4.7-0.3-6.9l-0.1,0
		c-0.3,0.3-0.7,0.7-1,1c0.2,1.7,0.4,4.3,0.4,6.1v1c0,0.6,0,1.3-0.1,2L36.4,157.2z M30.8,154.4c0.3-0.6,0.8-1,1.3-1
		c0.6,0,1.3,0.7,1.5,2.1c0,0.1-0.2,0.1-0.3,0.1c-0.4,0-0.8-0.1-1.2-0.3C31.5,155.1,31,154.8,30.8,154.4 M28.5,155.8
		c-0.5,0-0.7,0.4-0.7,0.6c0,0.3,0.1,0.7,0.7,0.7h0.2c0.9,0,1.4-0.4,1.7-1.3h0.1c1,0.7,1.9,1.2,2.9,1.2c0.5,0,0.8-0.4,1-1.3
		c-0.2-1.7-0.9-3.3-2-3.3c-0.5,0-0.9,0.2-1.2,0.6c-0.4,0.4-0.6,0.8-0.7,1.2c-0.4,1.2-0.9,1.7-1.6,1.7H28.5z M32.4,146.4
		c-0.1,0.2-0.2,0.3-0.4,0.5c0.2,0.5,0.3,0.8,0.3,1c0,0.1-0.2,0.1-0.2,0.1c-0.1,0-0.2,0-0.3-0.1c-0.2-0.1-0.3-0.4-0.4-0.9l0,0
		c-0.1,0.1-0.2,0.2-0.3,0.2l0,0.7c0,0.2-0.1,0.4-0.4,0.4c-0.2,0-0.3-0.2-0.3-0.5c0-0.2,0-0.3,0.1-0.5l0,0c-0.1,0.1-0.2,0.1-0.3,0.2
		c-0.1,0.2-0.1,0.4-0.1,0.6c0,0.3,0,0.5,0.1,0.7c0.1,0.2,0.3,0.3,0.5,0.3c0.3,0,0.6-0.2,0.9-0.5h0c0.2,0.1,0.4,0.2,0.6,0.2
		c0.2,0,0.4-0.1,0.5-0.5c0.1-0.2,0-0.4,0-0.5C32.8,147.4,32.7,146.9,32.4,146.4L32.4,146.4z M33.1,145.1L33.1,145.1
		c-0.9,0.3-2,0.7-3.1,1.1l-0.1,0.6l0,0c1-0.3,2-0.7,2.9-1L33.1,145.1z M28.5,155.8h-0.1c-0.1,0-0.4,0-0.6-0.1
		c-0.4-0.1-0.7-0.4-0.7-1V154c0-2.4,0-4.9-0.2-7.1l-0.1,0c-0.3,0.2-0.6,0.5-0.9,0.9c0.1,2.1,0.3,4,0.3,5.9c0,1.4,0,2.1,0.6,2.7
		c0.4,0.4,0.9,0.6,1.7,0.6h0.1V155.8z"/>
	<path clip-path="url(#SVGID_2_)" fill="#3A3C48" d="M269.7,181v-4.2c0-0.6,0-1.1-0.1-1.4c-0.1-0.4-0.2-0.7-0.4-0.9
		s-0.4-0.4-0.7-0.5c-0.3-0.1-0.6-0.1-1-0.1c-0.5,0-1,0.1-1.4,0.3c-0.4,0.2-0.7,0.4-0.9,0.7h-0.1l-0.2-0.9h-0.8v7h1.1v-4.8
		c0.1-0.4,0.4-0.7,0.7-1c0.3-0.3,0.7-0.4,1.2-0.4c0.6,0,0.9,0.2,1.2,0.6s0.3,0.9,0.3,1.6v4H269.7z M260.8,175.2
		c0.3,0.3,0.4,0.8,0.4,1.5h-3.5c0.1-0.7,0.3-1.2,0.6-1.5s0.8-0.4,1.3-0.4C260.1,174.8,260.5,175,260.8,175.2 M261.6,179.6
		c-0.2,0.1-0.4,0.3-0.7,0.4c-0.3,0.1-0.6,0.2-1,0.2c-0.4,0-0.8-0.1-1-0.2s-0.5-0.3-0.7-0.5s-0.3-0.5-0.4-0.8
		c-0.1-0.3-0.1-0.7-0.1-1.1h4.5c0.1-0.4,0.1-0.7,0.1-1c0-0.6-0.1-1.1-0.2-1.4c-0.2-0.4-0.4-0.6-0.6-0.8c-0.3-0.2-0.5-0.3-0.9-0.4
		c-0.3-0.1-0.6-0.1-1-0.1c-1,0-1.8,0.3-2.3,0.9c-0.5,0.6-0.8,1.5-0.8,2.7c0,0.6,0.1,1.1,0.2,1.5c0.1,0.4,0.3,0.8,0.6,1.2
		c0.3,0.3,0.6,0.6,1,0.7s0.9,0.3,1.4,0.3c0.5,0,0.9-0.1,1.4-0.2c0.4-0.1,0.8-0.3,1.1-0.5L261.6,179.6z M253.8,175.2
		c0.3,0.3,0.4,0.8,0.4,1.5h-3.5c0.1-0.7,0.3-1.2,0.6-1.5c0.3-0.3,0.8-0.4,1.3-0.4C253.2,174.8,253.6,175,253.8,175.2 M254.7,179.6
		c-0.2,0.1-0.4,0.3-0.7,0.4c-0.3,0.1-0.6,0.2-1,0.2c-0.4,0-0.8-0.1-1-0.2s-0.5-0.3-0.7-0.5s-0.3-0.5-0.4-0.8
		c-0.1-0.3-0.1-0.7-0.1-1.1h4.5c0.1-0.4,0.1-0.7,0.1-1c0-0.6-0.1-1.1-0.2-1.4c-0.2-0.4-0.4-0.6-0.6-0.8s-0.5-0.3-0.9-0.4
		c-0.3-0.1-0.6-0.1-1-0.1c-1,0-1.8,0.3-2.3,0.9s-0.8,1.5-0.8,2.7c0,0.6,0.1,1.1,0.2,1.5c0.1,0.4,0.3,0.8,0.6,1.2
		c0.3,0.3,0.6,0.6,1,0.7s0.9,0.3,1.4,0.3c0.5,0,0.9-0.1,1.4-0.2s0.8-0.3,1.1-0.5L254.7,179.6z M246.1,175c0.2,0.1,0.4,0.3,0.5,0.5
		s0.2,0.5,0.3,0.8c0.1,0.3,0.1,0.7,0.1,1c0,1-0.2,1.7-0.6,2.1s-0.9,0.7-1.5,0.7c-0.3,0-0.5,0-0.8-0.1s-0.5-0.1-0.6-0.2v-3.5
		c0.1-0.5,0.3-0.8,0.6-1.1c0.3-0.3,0.7-0.4,1.1-0.4C245.6,174.8,245.9,174.9,246.1,175 M242.4,180.6c0.2,0.1,0.5,0.3,1,0.4
		s0.9,0.2,1.4,0.2c1.1,0,1.9-0.3,2.5-1c0.6-0.6,0.9-1.6,0.9-2.8c0-1.2-0.2-2.1-0.7-2.7c-0.5-0.6-1.1-0.9-2-0.9
		c-0.4,0-0.8,0.1-1.1,0.2c-0.3,0.1-0.6,0.4-0.8,0.6h-0.1v-3.5h-1.1V180.6z M233,175h1.1v4.1c0,0.8,0.1,1.3,0.3,1.6
		c0.2,0.3,0.6,0.5,1.2,0.5c0.3,0,0.7,0,1-0.1c0.3-0.1,0.6-0.2,0.8-0.3l-0.3-0.9c-0.2,0.1-0.4,0.2-0.6,0.2c-0.2,0.1-0.4,0.1-0.6,0.1
		c-0.3,0-0.5-0.1-0.6-0.3c-0.1-0.2-0.2-0.5-0.2-1V175h1.9v-1h-1.9v-1.7l-1.1,0.3v1.4H233V175z M229.1,174.8c0.3,0,0.6,0.1,0.9,0.2
		c0.2,0.1,0.4,0.3,0.6,0.6c0.1,0.2,0.3,0.5,0.3,0.9c0.1,0.3,0.1,0.7,0.1,1c0,1.8-0.6,2.7-1.9,2.7c-0.3,0-0.6-0.1-0.9-0.2
		c-0.2-0.1-0.4-0.3-0.6-0.6c-0.1-0.2-0.3-0.5-0.3-0.9c-0.1-0.3-0.1-0.7-0.1-1C227.2,175.7,227.8,174.8,229.1,174.8 M226.2,179
		c0.1,0.5,0.3,0.8,0.6,1.2c0.3,0.3,0.6,0.6,1,0.7c0.4,0.2,0.8,0.3,1.4,0.3c1,0,1.7-0.3,2.3-0.9c0.5-0.6,0.8-1.5,0.8-2.7
		c0-0.6-0.1-1.1-0.2-1.5c-0.1-0.5-0.3-0.8-0.6-1.2c-0.3-0.3-0.6-0.6-1-0.7c-0.4-0.2-0.8-0.3-1.4-0.3c-1,0-1.7,0.3-2.3,0.9
		c-0.5,0.6-0.8,1.5-0.8,2.7C226.1,178.1,226.1,178.6,226.2,179 M224.4,181v-4.2c0-0.6,0-1.1-0.1-1.4c-0.1-0.4-0.2-0.7-0.4-0.9
		c-0.2-0.2-0.4-0.4-0.7-0.5c-0.3-0.1-0.6-0.1-1-0.1c-0.5,0-1,0.1-1.4,0.3c-0.4,0.2-0.7,0.4-0.9,0.7h-0.1l-0.2-0.9h-0.8v7h1.1v-4.8
		c0.1-0.4,0.4-0.7,0.7-1c0.3-0.3,0.7-0.4,1.2-0.4c0.6,0,0.9,0.2,1.2,0.6c0.2,0.4,0.3,0.9,0.3,1.6v4H224.4z M209.4,175h1.1v4.1
		c0,0.8,0.1,1.3,0.4,1.6c0.2,0.3,0.6,0.5,1.2,0.5c0.3,0,0.7,0,1-0.1c0.3-0.1,0.6-0.2,0.8-0.3l-0.3-0.9c-0.2,0.1-0.4,0.2-0.6,0.2
		c-0.2,0.1-0.4,0.1-0.6,0.1c-0.3,0-0.5-0.1-0.6-0.3c-0.1-0.2-0.2-0.5-0.2-1V175h1.9v-1h-1.9v-1.7l-1.1,0.3v1.4h-1.1V175z
		 M206.8,172.4c0.1,0.1,0.3,0.2,0.6,0.2s0.4-0.1,0.6-0.2c0.2-0.1,0.2-0.3,0.2-0.5c0-0.2-0.1-0.4-0.2-0.6c-0.2-0.2-0.3-0.2-0.6-0.2
		s-0.4,0.1-0.6,0.2c-0.1,0.2-0.2,0.3-0.2,0.6C206.6,172.1,206.6,172.3,206.8,172.4 M206.8,181h1.1v-7h-1.1V181z M197,180
		c-0.2-0.1-0.4-0.3-0.6-0.6s-0.2-0.5-0.3-0.8c-0.1-0.3-0.1-0.7-0.1-1.1c0-0.9,0.2-1.6,0.5-2c0.4-0.4,0.9-0.6,1.5-0.6
		c0.4,0,0.6,0,0.9,0.1c0.2,0.1,0.4,0.1,0.6,0.3v3.5c-0.1,0.5-0.3,0.9-0.6,1.1s-0.7,0.4-1.1,0.4C197.5,180.2,197.2,180.1,197,180
		 M200.7,171.2h-1.1v2.9c-0.2-0.1-0.5-0.1-0.7-0.2c-0.2,0-0.5-0.1-0.8-0.1c-1,0-1.8,0.3-2.3,0.9c-0.6,0.6-0.8,1.5-0.8,2.7
		c0,1.3,0.2,2.2,0.7,2.8c0.5,0.6,1.1,0.9,2.1,0.9c0.5,0,0.9-0.1,1.2-0.3c0.4-0.2,0.6-0.5,0.8-0.8h0.1l0.3,1h0.8
		c-0.1-0.4-0.1-0.8-0.1-1.1c0-0.4,0-0.8,0-1.3V171.2z M189.3,179.8c-0.2-0.2-0.3-0.5-0.3-0.8c0-0.2,0.1-0.4,0.2-0.6
		c0.1-0.2,0.3-0.3,0.5-0.4c0.2-0.1,0.5-0.1,0.7-0.2c0.3,0,0.6,0,0.8,0c0.1,0,0.3,0,0.4,0c0.1,0,0.3,0,0.4,0v1.2
		c0,0.1-0.1,0.2-0.2,0.4c-0.1,0.1-0.2,0.2-0.4,0.4s-0.3,0.2-0.5,0.3c-0.2,0.1-0.4,0.1-0.7,0.1C189.8,180.1,189.5,180,189.3,179.8
		 M188.6,175.4c0.1-0.1,0.3-0.1,0.5-0.2c0.2-0.1,0.4-0.1,0.5-0.2c0.2,0,0.4-0.1,0.6-0.1c0.2,0,0.4,0,0.5,0c0.5,0,0.9,0.1,1.1,0.3
		c0.2,0.2,0.3,0.6,0.3,1.1c0,0.2,0,0.5,0,0.8c-0.1,0-0.3,0-0.4,0h-0.4c-0.5,0-1,0-1.4,0.1c-0.4,0.1-0.8,0.2-1.1,0.3
		c-0.3,0.2-0.5,0.4-0.7,0.7s-0.3,0.6-0.3,1c0,0.3,0.1,0.6,0.2,0.8c0.1,0.2,0.3,0.4,0.4,0.6c0.2,0.2,0.4,0.3,0.7,0.4s0.5,0.1,0.8,0.1
		c0.3,0,0.6,0,0.8-0.1s0.4-0.1,0.6-0.2c0.2-0.1,0.3-0.2,0.5-0.3c0.1-0.1,0.2-0.3,0.3-0.4h0.1l0.3,1h0.8c-0.1-0.3-0.1-0.5-0.2-0.9
		c0-0.3,0-0.6,0-1c0-0.5,0-1,0-1.5c0-0.5,0-1.1,0-1.6c0-0.3,0-0.5-0.1-0.8c-0.1-0.3-0.2-0.5-0.3-0.7c-0.2-0.2-0.4-0.4-0.7-0.5
		c-0.3-0.1-0.7-0.2-1.2-0.2c-0.5,0-1,0.1-1.5,0.2c-0.5,0.1-0.9,0.3-1.2,0.5L188.6,175.4z M186.3,181v-4.2c0-0.6,0-1.1-0.1-1.4
		c-0.1-0.4-0.2-0.7-0.4-0.9s-0.4-0.4-0.7-0.5c-0.3-0.1-0.6-0.1-1-0.1c-0.5,0-0.9,0.1-1.3,0.3s-0.6,0.4-0.9,0.7h-0.1v-3.6h-1.1v9.8
		h1.1v-4.7c0.1-0.4,0.3-0.8,0.7-1.1c0.4-0.3,0.8-0.4,1.2-0.4c0.3,0,0.6,0,0.7,0.1c0.2,0.1,0.3,0.2,0.5,0.4c0.1,0.2,0.2,0.4,0.2,0.7
		c0,0.3,0.1,0.6,0.1,1v4H186.3z"/>
	<path clip-path="url(#SVGID_2_)" fill="#33ACE3" d="M193.3,155.8c-0.5,0-0.7,0.4-0.7,0.6c0,0.3,0.1,0.7,0.7,0.7h0.1
		c0.4,0,0.8-0.1,1.2-0.3c0.4-0.2,0.7-0.6,0.9-1.1c0.3-0.6,0.4-1.4,0.4-2.5c0-1.1-0.1-2.3-0.1-3.4c0.2-0.2,0.4-0.3,0.6-0.5
		c-0.5-0.8-0.8-1.6-0.8-2.2l-0.1,0c-0.2,0.2-0.4,0.4-0.5,0.5c-0.2,0.2-0.3,0.4-0.3,0.7c0,0.4,0.1,0.8,0.1,1.2
		c0.2,1.8,0.3,3.5,0.3,5.1c0,0.5-0.2,0.9-0.5,1.1c-0.4,0.2-0.8,0.3-1.1,0.3H193.3z M197.1,144.5L197.1,144.5
		c-1.1,0.4-2.5,0.9-3.9,1.3l-0.1,0.7l0,0c1.2-0.4,2.4-0.8,3.6-1.3L197.1,144.5z M191.8,155.8c-0.6,0-1.2,0-1.8-0.1
		c-0.6-0.2-1.1-0.5-1.1-1c0-0.4,0.6-0.9,1.1-0.9c0.4,0,0.7,0.2,1,0.5C191.4,154.7,191.7,155.2,191.8,155.8 M192.4,155.8
		c-0.3-2-1.2-3.3-2.1-3.3c-0.6,0-1.1,0.4-1.5,0.9c-0.3,0.4-0.5,0.9-0.5,1.6c0,1.4,1,2,3,2h0.5c-0.1,0.5-0.4,0.9-0.9,1.4
		c-0.8,0.9-1.7,1.3-2.7,1.3c-0.6,0-1.1-0.1-1.4-0.4l-0.2,0.3c0.9,0.6,1.9,1,2.8,1c0.5,0,1.6-0.5,2.4-1.7c0.4-0.6,0.7-1.4,0.7-2h0.8
		v-1.2H192.4z M190.5,148c0,0.1-0.4,0.5-0.9,0.5c-0.6,0-0.8-0.4-0.8-0.7c0-0.4,0.4-0.6,0.7-0.6C190.1,147.3,190.5,147.9,190.5,148
		 M189.6,149.3c0.4,0,1.2-0.3,1.2-1.3c0-1.2-0.8-1.5-1.2-1.5c-0.4,0-1.1,0.4-1.1,1.5C188.5,148.7,188.8,149.3,189.6,149.3
		 M186.1,147c-0.2,0.2-0.4,0.4-0.6,0.6c-0.1,0.2-0.2,0.4-0.2,0.7c0,0.4,0.1,1.1,0.1,1.5c0.2,1.7,0.3,2.9,0.3,3.9
		c0,0.9-0.3,1.5-0.8,1.8l-0.1,0c0-0.7-0.2-1.2-0.4-1.7c-0.6-1-1.4-2.3-2.3-3.7l0.3-0.6c-0.6-0.6-1.2-1.2-1.6-1.7l0,0
		c-0.1,0.2-0.4,0.7-0.4,0.9c0,0.3,0.3,0.9,1,1.8c0.8,1.2,1.5,2.2,2.1,3.1c0.6,0.9,1.1,1.6,1.1,2c-1,0.6-2.5,1-4.4,1.3v0.1
		c0.7,0.2,1.5,0.4,2.4,0.4c0.8,0,1.8-0.3,2.5-0.8c0.5-0.4,0.8-0.9,1.1-1.7c0.2-0.5,0.3-1.2,0.3-1.9c0-1.2,0-2.3-0.1-3.5
		c0.2-0.2,0.4-0.3,0.6-0.5c-0.4-0.7-0.8-1.4-0.8-2C186.1,147.1,186.1,147.1,186.1,147L186.1,147z M187.6,144.8L187.6,144.8
		c-1.1,0.4-2.5,0.9-3.9,1.3l-0.1,0.7l0,0c1.2-0.4,2.4-0.8,3.6-1.3L187.6,144.8z"/>
	<path clip-path="url(#SVGID_2_)" fill="#3A3C48" d="M420.3,181v-4.2c0-0.6,0-1.1-0.1-1.4c-0.1-0.4-0.2-0.7-0.4-0.9
		c-0.2-0.2-0.4-0.4-0.7-0.5c-0.3-0.1-0.6-0.1-1-0.1c-0.5,0-1,0.1-1.4,0.3c-0.4,0.2-0.7,0.4-0.9,0.7h-0.1l-0.2-0.9h-0.8v7h1.1v-4.8
		c0.1-0.4,0.4-0.7,0.7-1c0.3-0.3,0.7-0.4,1.2-0.4c0.6,0,0.9,0.2,1.2,0.6s0.3,0.9,0.3,1.6v4H420.3z M411.4,175.2
		c0.3,0.3,0.4,0.8,0.4,1.5h-3.5c0.1-0.7,0.3-1.2,0.6-1.5c0.3-0.3,0.8-0.4,1.3-0.4C410.7,174.8,411.1,175,411.4,175.2 M412.2,179.6
		c-0.2,0.1-0.4,0.3-0.7,0.4c-0.3,0.1-0.6,0.2-1,0.2c-0.4,0-0.8-0.1-1-0.2c-0.3-0.1-0.5-0.3-0.7-0.5c-0.2-0.2-0.3-0.5-0.4-0.8
		c-0.1-0.3-0.1-0.7-0.1-1.1h4.5c0.1-0.4,0.1-0.7,0.1-1c0-0.6-0.1-1.1-0.2-1.4c-0.2-0.4-0.4-0.6-0.6-0.8c-0.3-0.2-0.5-0.3-0.9-0.4
		c-0.3-0.1-0.6-0.1-1-0.1c-1,0-1.8,0.3-2.3,0.9c-0.5,0.6-0.8,1.5-0.8,2.7c0,0.6,0.1,1.1,0.2,1.5c0.1,0.4,0.3,0.8,0.6,1.2
		c0.3,0.3,0.6,0.6,1,0.7s0.9,0.3,1.4,0.3c0.5,0,0.9-0.1,1.4-0.2c0.4-0.1,0.8-0.3,1.1-0.5L412.2,179.6z M404.4,175.2
		c0.3,0.3,0.4,0.8,0.4,1.5h-3.5c0.1-0.7,0.3-1.2,0.6-1.5c0.3-0.3,0.8-0.4,1.3-0.4C403.8,174.8,404.2,175,404.4,175.2 M405.3,179.6
		c-0.2,0.1-0.4,0.3-0.7,0.4c-0.3,0.1-0.6,0.2-1,0.2c-0.4,0-0.8-0.1-1-0.2c-0.3-0.1-0.5-0.3-0.7-0.5c-0.2-0.2-0.3-0.5-0.4-0.8
		c-0.1-0.3-0.1-0.7-0.1-1.1h4.5c0.1-0.4,0.1-0.7,0.1-1c0-0.6-0.1-1.1-0.2-1.4c-0.2-0.4-0.4-0.6-0.6-0.8c-0.3-0.2-0.5-0.3-0.9-0.4
		c-0.3-0.1-0.6-0.1-1-0.1c-1,0-1.8,0.3-2.3,0.9c-0.5,0.6-0.8,1.5-0.8,2.7c0,0.6,0.1,1.1,0.2,1.5c0.1,0.4,0.3,0.8,0.6,1.2
		c0.3,0.3,0.6,0.6,1,0.7s0.9,0.3,1.4,0.3c0.5,0,0.9-0.1,1.4-0.2c0.4-0.1,0.8-0.3,1.1-0.5L405.3,179.6z M396.7,175
		c0.2,0.1,0.4,0.3,0.5,0.5s0.2,0.5,0.3,0.8c0.1,0.3,0.1,0.7,0.1,1c0,1-0.2,1.7-0.6,2.1c-0.4,0.4-0.9,0.7-1.5,0.7
		c-0.3,0-0.5,0-0.8-0.1c-0.3-0.1-0.5-0.1-0.6-0.2v-3.5c0.1-0.5,0.3-0.8,0.6-1.1c0.3-0.3,0.7-0.4,1.1-0.4
		C396.2,174.8,396.5,174.9,396.7,175 M393,180.6c0.2,0.1,0.5,0.3,1,0.4c0.4,0.1,0.9,0.2,1.4,0.2c1.1,0,1.9-0.3,2.5-1
		c0.6-0.6,0.9-1.6,0.9-2.8c0-1.2-0.2-2.1-0.7-2.7c-0.5-0.6-1.1-0.9-2-0.9c-0.4,0-0.8,0.1-1.1,0.2c-0.3,0.1-0.6,0.4-0.8,0.6h-0.1
		v-3.5H393V180.6z M383.6,175h1.1v4.1c0,0.8,0.1,1.3,0.4,1.6c0.2,0.3,0.6,0.5,1.2,0.5c0.3,0,0.7,0,1-0.1c0.3-0.1,0.6-0.2,0.8-0.3
		l-0.3-0.9c-0.2,0.1-0.4,0.2-0.6,0.2c-0.2,0.1-0.4,0.1-0.6,0.1c-0.3,0-0.5-0.1-0.6-0.3c-0.1-0.2-0.2-0.5-0.2-1V175h1.9v-1h-1.9v-1.7
		l-1.1,0.3v1.4h-1.1V175z M381,172.4c0.1,0.1,0.3,0.2,0.6,0.2s0.4-0.1,0.6-0.2c0.2-0.1,0.2-0.3,0.2-0.5c0-0.2-0.1-0.4-0.2-0.6
		s-0.4-0.2-0.6-0.2s-0.4,0.1-0.6,0.2c-0.1,0.2-0.2,0.3-0.2,0.6C380.8,172.1,380.9,172.3,381,172.4 M381,181h1.1v-7H381V181z
		 M371.2,180c-0.2-0.1-0.4-0.3-0.6-0.6c-0.1-0.2-0.2-0.5-0.3-0.8c-0.1-0.3-0.1-0.7-0.1-1.1c0-0.9,0.2-1.6,0.5-2
		c0.4-0.4,0.9-0.6,1.5-0.6c0.4,0,0.6,0,0.9,0.1s0.4,0.1,0.6,0.3v3.5c-0.1,0.5-0.3,0.9-0.6,1.1s-0.7,0.4-1.1,0.4
		C371.8,180.2,371.5,180.1,371.2,180 M374.9,171.2h-1.1v2.9c-0.2-0.1-0.5-0.1-0.7-0.2c-0.2,0-0.5-0.1-0.8-0.1c-1,0-1.8,0.3-2.3,0.9
		s-0.8,1.5-0.8,2.7c0,1.3,0.2,2.2,0.7,2.8s1.1,0.9,2.1,0.9c0.5,0,0.9-0.1,1.2-0.3c0.4-0.2,0.6-0.5,0.8-0.8h0.1l0.3,1h0.8
		c-0.1-0.4-0.1-0.8-0.1-1.1c0-0.4,0-0.8,0-1.3V171.2z M363.6,179.8c-0.2-0.2-0.4-0.5-0.4-0.8c0-0.2,0.1-0.4,0.2-0.6
		c0.1-0.2,0.3-0.3,0.5-0.4c0.2-0.1,0.5-0.1,0.7-0.2c0.3,0,0.6,0,0.8,0c0.1,0,0.3,0,0.4,0c0.1,0,0.3,0,0.4,0v1.2
		c0,0.1-0.1,0.2-0.2,0.4c-0.1,0.1-0.2,0.2-0.4,0.4c-0.1,0.1-0.3,0.2-0.5,0.3c-0.2,0.1-0.4,0.1-0.7,0.1
		C364.1,180.1,363.8,180,363.6,179.8 M362.8,175.4c0.1-0.1,0.3-0.1,0.5-0.2c0.2-0.1,0.4-0.1,0.5-0.2c0.2,0,0.4-0.1,0.6-0.1
		c0.2,0,0.4,0,0.5,0c0.5,0,0.9,0.1,1.1,0.3c0.2,0.2,0.3,0.6,0.3,1.1c0,0.2,0,0.5,0,0.8c-0.1,0-0.3,0-0.4,0h-0.4c-0.5,0-1,0-1.4,0.1
		c-0.4,0.1-0.8,0.2-1.1,0.3c-0.3,0.2-0.5,0.4-0.7,0.7s-0.3,0.6-0.3,1c0,0.3,0.1,0.6,0.2,0.8c0.1,0.2,0.3,0.4,0.4,0.6
		c0.2,0.2,0.4,0.3,0.7,0.4c0.3,0.1,0.5,0.1,0.8,0.1c0.3,0,0.6,0,0.8-0.1c0.2-0.1,0.4-0.1,0.6-0.2c0.2-0.1,0.3-0.2,0.5-0.3
		s0.2-0.3,0.3-0.4h0.1l0.3,1h0.8c-0.1-0.3-0.1-0.5-0.2-0.9c0-0.3,0-0.6,0-1c0-0.5,0-1,0-1.5c0-0.5,0-1.1,0-1.6c0-0.3,0-0.5-0.1-0.8
		c-0.1-0.3-0.2-0.5-0.3-0.7c-0.2-0.2-0.4-0.4-0.7-0.5s-0.7-0.2-1.2-0.2c-0.5,0-1,0.1-1.5,0.2c-0.5,0.1-0.9,0.3-1.2,0.5L362.8,175.4z
		 M360.5,181v-4.2c0-0.6,0-1.1-0.1-1.4c-0.1-0.4-0.2-0.7-0.4-0.9c-0.2-0.2-0.4-0.4-0.7-0.5c-0.3-0.1-0.6-0.1-1-0.1
		c-0.5,0-0.9,0.1-1.3,0.3c-0.3,0.2-0.6,0.4-0.9,0.7H356v-3.6h-1.1v9.8h1.1v-4.7c0.1-0.4,0.3-0.8,0.7-1.1c0.4-0.3,0.8-0.4,1.2-0.4
		c0.3,0,0.6,0,0.7,0.1c0.2,0.1,0.3,0.2,0.5,0.4c0.1,0.2,0.2,0.4,0.2,0.7c0,0.3,0.1,0.6,0.1,1v4H360.5z M344.6,182.6l0.9,0.4
		l5.1-11.5l-0.9-0.4L344.6,182.6z M337.3,175h1.1v6h1.1v-6h1.9v-1h-1.9v-0.2c0-0.3,0-0.5,0-0.7c0-0.2,0.1-0.4,0.1-0.5
		c0.1-0.1,0.2-0.3,0.3-0.3c0.1-0.1,0.3-0.1,0.6-0.1c0.2,0,0.3,0,0.5,0c0.2,0,0.4,0.1,0.6,0.2l0.3-0.9c-0.3-0.1-0.5-0.2-0.7-0.2
		c-0.2,0-0.5-0.1-0.8-0.1c-0.4,0-0.7,0-0.9,0.1c-0.3,0.1-0.5,0.2-0.6,0.4c-0.2,0.2-0.3,0.5-0.3,0.8c-0.1,0.3-0.1,0.7-0.1,1.1v0.4
		h-1.1V175z M334.5,172.4c0.1,0.1,0.3,0.2,0.6,0.2s0.4-0.1,0.6-0.2c0.2-0.1,0.2-0.3,0.2-0.5c0-0.2-0.1-0.4-0.2-0.6s-0.4-0.2-0.6-0.2
		s-0.4,0.1-0.6,0.2c-0.1,0.2-0.2,0.3-0.2,0.6C334.3,172.1,334.4,172.3,334.5,172.4 M334.5,181h1.1v-7h-1.1V181z"/>
	<path clip-path="url(#SVGID_2_)" fill="#33ACE3" d="M339.9,155.7c-0.5,0-0.7,0.4-0.7,0.6c0,0.3,0.1,0.7,0.7,0.7h0.1
		c0.4,0,0.8-0.1,1.2-0.3c0.4-0.2,0.7-0.6,0.9-1.1c0.3-0.6,0.4-1.4,0.4-2.5c0-1.1-0.1-2.3-0.1-3.4c0.2-0.2,0.4-0.3,0.6-0.5
		c-0.5-0.8-0.8-1.6-0.8-2.2l-0.1,0c-0.2,0.2-0.4,0.4-0.5,0.5c-0.2,0.2-0.3,0.4-0.3,0.7c0,0.4,0.1,0.8,0.1,1.2
		c0.2,1.8,0.3,3.5,0.3,5.1c0,0.5-0.2,0.9-0.5,1.1c-0.4,0.2-0.8,0.3-1.1,0.3H339.9z M343.8,144.5L343.8,144.5
		c-1.1,0.4-2.5,0.9-3.9,1.3l-0.1,0.7l0,0c1.2-0.4,2.4-0.8,3.6-1.3L343.8,144.5z M338.4,155.7c-0.6,0-1.2,0-1.8-0.1
		c-0.6-0.2-1.1-0.5-1.1-1c0-0.4,0.6-0.9,1.1-0.9c0.4,0,0.7,0.2,1,0.5C338.1,154.7,338.3,155.2,338.4,155.7 M339.1,155.7
		c-0.3-2-1.2-3.3-2.1-3.3c-0.6,0-1.1,0.4-1.5,0.9c-0.3,0.4-0.5,0.9-0.5,1.6c0,1.4,1,2,3,2h0.5c-0.1,0.5-0.4,0.9-0.9,1.4
		c-0.8,0.9-1.7,1.3-2.7,1.3c-0.6,0-1.1-0.1-1.4-0.4l-0.2,0.3c0.9,0.6,1.9,1,2.8,1c0.5,0,1.6-0.5,2.4-1.7c0.4-0.6,0.7-1.4,0.7-2h0.8
		v-1.2H339.1z M337.1,148c0,0.1-0.4,0.5-0.9,0.5c-0.6,0-0.8-0.4-0.8-0.7c0-0.4,0.4-0.6,0.7-0.6C336.8,147.3,337.1,147.9,337.1,148
		 M336.2,149.3c0.4,0,1.2-0.3,1.2-1.3c0-1.2-0.8-1.5-1.2-1.5c-0.4,0-1.1,0.4-1.1,1.5C335.1,148.7,335.5,149.3,336.2,149.3"/>
	
		<path clip-path="url(#SVGID_2_)" fill="none" stroke="#B0ADA3" stroke-width="0.5" stroke-linejoin="round" stroke-dasharray="1.559,1.059" d="
		M25,137.3c-1.5,0.6-2.6,1.8-3,3.4"/>
	
		<line clip-path="url(#SVGID_2_)" fill="none" stroke="#B0ADA3" stroke-width="0.5" stroke-linejoin="round" stroke-dasharray="1.469,0.969" x1="21.8" y1="143.7" x2="21.8" y2="160.3"/>
	
		<path clip-path="url(#SVGID_2_)" fill="none" stroke="#B0ADA3" stroke-width="0.5" stroke-linejoin="round" stroke-dasharray="1.559,1.059" d="
		M22.2,163.3c0.6,1.5,1.8,2.6,3.4,3"/>
	
		<line clip-path="url(#SVGID_2_)" fill="none" stroke="#B0ADA3" stroke-width="0.5" stroke-linejoin="round" stroke-dasharray="1.491,0.991" x1="28.6" y1="166.5" x2="35.5" y2="166.5"/>
	
		<path clip-path="url(#SVGID_2_)" fill="none" stroke="#B0ADA3" stroke-width="0.5" stroke-linejoin="round" stroke-dasharray="1.559,1.059" d="
		M38.5,166.1c1.5-0.6,2.6-1.8,3-3.4"/>
	
		<line clip-path="url(#SVGID_2_)" fill="none" stroke="#B0ADA3" stroke-width="0.5" stroke-linejoin="round" stroke-dasharray="1.469,0.969" x1="41.8" y1="159.8" x2="41.8" y2="143.2"/>
	
		<path clip-path="url(#SVGID_2_)" fill="none" stroke="#B0ADA3" stroke-width="0.5" stroke-linejoin="round" stroke-dasharray="1.559,1.059" d="
		M41.4,140.2c-0.6-1.5-1.8-2.6-3.4-3"/>
	
		<line clip-path="url(#SVGID_2_)" fill="none" stroke="#B0ADA3" stroke-width="0.5" stroke-linejoin="round" stroke-dasharray="1.491,0.991" x1="35" y1="137" x2="28.1" y2="137"/>
	<path clip-path="url(#SVGID_2_)" fill="none" stroke="#B0ADA3" stroke-width="0.5" stroke-linejoin="round" d="M27.6,137h-0.7
		c-0.3,0-0.5,0-0.8,0.1 M37.5,137c-0.3,0-0.5-0.1-0.8-0.1H36 M41.8,142.7V142c0-0.3,0-0.5-0.1-0.8 M41.7,162.3
		c0-0.3,0.1-0.5,0.1-0.8v-0.7 M36,166.5h0.7c0.3,0,0.5,0,0.8-0.1 M26,166.4c0.3,0,0.5,0.1,0.8,0.1h0.7 M21.8,160.7v0.7
		c0,0.3,0,0.5,0.1,0.8 M21.9,141.2c0,0.3-0.1,0.5-0.1,0.8v0.7"/>
</g>
<g>
	<path fill="#B0ADA3" d="M27,134.1c-0.2,0-0.4,0-0.6-0.1c-0.1-0.1-0.3-0.2-0.3-0.4c-0.1-0.2-0.1-0.4-0.1-0.6v-3h-0.5v-0.6H26V128
		h0.9v1.4h0.7v0.6h-0.7v3c0,0.2,0,0.3,0.1,0.4s0.2,0.1,0.3,0.1c0,0,0.1,0,0.1,0c0.1,0,0.1,0,0.2,0v0.6c-0.1,0-0.2,0-0.3,0
		S27.1,134.1,27,134.1z"/>
	<path fill="#B0ADA3" d="M29.5,134.1c-0.3,0-0.6-0.1-0.8-0.2s-0.3-0.3-0.4-0.6c-0.1-0.3-0.1-0.6-0.1-0.9V131c0-0.3,0-0.6,0.1-0.9
		c0.1-0.3,0.2-0.5,0.4-0.6c0.2-0.1,0.5-0.2,0.8-0.2s0.6,0.1,0.8,0.2c0.2,0.1,0.3,0.3,0.4,0.6c0.1,0.3,0.1,0.6,0.1,0.9v1.3
		c0,0.3,0,0.6-0.1,0.9c-0.1,0.3-0.2,0.5-0.4,0.6C30.1,134,29.8,134.1,29.5,134.1z M29.5,133.5c0.2,0,0.3,0,0.3-0.1
		c0.1-0.1,0.1-0.2,0.1-0.4s0-0.3,0-0.5V131c0-0.2,0-0.3,0-0.5c0-0.2-0.1-0.3-0.1-0.4c-0.1-0.1-0.2-0.1-0.3-0.1c-0.2,0-0.3,0-0.4,0.1
		s-0.1,0.2-0.1,0.4c0,0.2,0,0.3,0,0.5v1.4c0,0.2,0,0.3,0,0.5s0.1,0.3,0.1,0.4S29.3,133.5,29.5,133.5z"/>
	<path fill="#B0ADA3" d="M32.9,134.1c-0.3,0-0.6-0.1-0.8-0.2s-0.3-0.3-0.4-0.6c-0.1-0.3-0.1-0.6-0.1-0.9V131c0-0.3,0-0.6,0.1-0.9
		c0.1-0.3,0.2-0.5,0.4-0.6c0.2-0.1,0.5-0.2,0.8-0.2s0.6,0.1,0.8,0.2c0.2,0.1,0.3,0.3,0.4,0.6c0.1,0.3,0.1,0.6,0.1,0.9v1.3
		c0,0.3,0,0.6-0.1,0.9c-0.1,0.3-0.2,0.5-0.4,0.6C33.5,134,33.2,134.1,32.9,134.1z M32.9,133.5c0.2,0,0.3,0,0.3-0.1
		c0.1-0.1,0.1-0.2,0.1-0.4s0-0.3,0-0.5V131c0-0.2,0-0.3,0-0.5c0-0.2-0.1-0.3-0.1-0.4c-0.1-0.1-0.2-0.1-0.3-0.1c-0.2,0-0.3,0-0.4,0.1
		s-0.1,0.2-0.1,0.4c0,0.2,0,0.3,0,0.5v1.4c0,0.2,0,0.3,0,0.5s0.1,0.3,0.1,0.4S32.7,133.5,32.9,133.5z"/>
	<path fill="#B0ADA3" d="M35.1,134v-6.5H36v6.5H35.1z"/>
</g>
<g>
	<defs>
		<rect id="SVGID_3_" width="800" height="229"/>
	</defs>
	<clipPath id="SVGID_4_">
		<use xlink:href="#SVGID_3_"  overflow="visible"/>
	</clipPath>
	
		<path clip-path="url(#SVGID_4_)" fill="none" stroke="#B0ADA3" stroke-width="0.5" stroke-linejoin="round" stroke-dasharray="1.559,1.059" d="
		M179,137.3c-1.5,0.6-2.6,1.8-3,3.4"/>
	
		<line clip-path="url(#SVGID_4_)" fill="none" stroke="#B0ADA3" stroke-width="0.5" stroke-linejoin="round" stroke-dasharray="1.469,0.969" x1="175.8" y1="143.7" x2="175.8" y2="160.3"/>
	
		<path clip-path="url(#SVGID_4_)" fill="none" stroke="#B0ADA3" stroke-width="0.5" stroke-linejoin="round" stroke-dasharray="1.559,1.059" d="
		M176.2,163.3c0.6,1.5,1.8,2.6,3.4,3"/>
	
		<line clip-path="url(#SVGID_4_)" fill="none" stroke="#B0ADA3" stroke-width="0.5" stroke-linejoin="round" stroke-dasharray="1.577,1.077" x1="182.7" y1="166.5" x2="195.4" y2="166.5"/>
	
		<path clip-path="url(#SVGID_4_)" fill="none" stroke="#B0ADA3" stroke-width="0.5" stroke-linejoin="round" stroke-dasharray="1.559,1.059" d="
		M198.5,166.1c1.5-0.6,2.6-1.8,3-3.4"/>
	
		<line clip-path="url(#SVGID_4_)" fill="none" stroke="#B0ADA3" stroke-width="0.5" stroke-linejoin="round" stroke-dasharray="1.469,0.969" x1="201.8" y1="159.8" x2="201.8" y2="143.2"/>
	
		<path clip-path="url(#SVGID_4_)" fill="none" stroke="#B0ADA3" stroke-width="0.5" stroke-linejoin="round" stroke-dasharray="1.559,1.059" d="
		M201.4,140.2c-0.6-1.5-1.8-2.6-3.4-3"/>
	
		<line clip-path="url(#SVGID_4_)" fill="none" stroke="#B0ADA3" stroke-width="0.5" stroke-linejoin="round" stroke-dasharray="1.577,1.077" x1="194.9" y1="137" x2="182.2" y2="137"/>
	<path clip-path="url(#SVGID_4_)" fill="none" stroke="#B0ADA3" stroke-width="0.5" stroke-linejoin="round" d="M181.6,137h-0.8
		c-0.3,0-0.5,0-0.8,0.1 M197.5,137c-0.3,0-0.5-0.1-0.8-0.1H196 M201.8,142.7V142c0-0.3,0-0.5-0.1-0.8 M201.7,162.3
		c0-0.3,0.1-0.5,0.1-0.8v-0.7 M196,166.5h0.8c0.3,0,0.5,0,0.8-0.1 M180,166.4c0.3,0,0.5,0.1,0.8,0.1h0.8 M175.8,160.7v0.7
		c0,0.3,0,0.5,0.1,0.8 M175.9,141.2c0,0.3-0.1,0.5-0.1,0.8v0.7"/>
</g>
<g>
	<path fill="#B0ADA3" d="M181,134.1c-0.2,0-0.4,0-0.6-0.1c-0.1-0.1-0.3-0.2-0.3-0.4c-0.1-0.2-0.1-0.4-0.1-0.6v-3h-0.5v-0.6h0.5V128
		h0.9v1.4h0.7v0.6h-0.7v3c0,0.2,0,0.3,0.1,0.4s0.2,0.1,0.3,0.1c0,0,0.1,0,0.1,0c0.1,0,0.1,0,0.2,0v0.6c-0.1,0-0.2,0-0.3,0
		S181.1,134.1,181,134.1z"/>
	<path fill="#B0ADA3" d="M183.5,134.1c-0.3,0-0.6-0.1-0.8-0.2s-0.3-0.3-0.4-0.6c-0.1-0.3-0.1-0.6-0.1-0.9V131c0-0.3,0-0.6,0.1-0.9
		c0.1-0.3,0.2-0.5,0.4-0.6c0.2-0.1,0.5-0.2,0.8-0.2s0.6,0.1,0.8,0.2c0.2,0.1,0.3,0.3,0.4,0.6c0.1,0.3,0.1,0.6,0.1,0.9v1.3
		c0,0.3,0,0.6-0.1,0.9c-0.1,0.3-0.2,0.5-0.4,0.6C184.1,134,183.8,134.1,183.5,134.1z M183.5,133.5c0.2,0,0.3,0,0.3-0.1
		c0.1-0.1,0.1-0.2,0.1-0.4s0-0.3,0-0.5V131c0-0.2,0-0.3,0-0.5c0-0.2-0.1-0.3-0.1-0.4c-0.1-0.1-0.2-0.1-0.3-0.1c-0.2,0-0.3,0-0.4,0.1
		s-0.1,0.2-0.1,0.4c0,0.2,0,0.3,0,0.5v1.4c0,0.2,0,0.3,0,0.5s0.1,0.3,0.1,0.4S183.3,133.5,183.5,133.5z"/>
	<path fill="#B0ADA3" d="M186.9,134.1c-0.3,0-0.6-0.1-0.8-0.2s-0.3-0.3-0.4-0.6c-0.1-0.3-0.1-0.6-0.1-0.9V131c0-0.3,0-0.6,0.1-0.9
		c0.1-0.3,0.2-0.5,0.4-0.6c0.2-0.1,0.5-0.2,0.8-0.2s0.6,0.1,0.8,0.2c0.2,0.1,0.3,0.3,0.4,0.6c0.1,0.3,0.1,0.6,0.1,0.9v1.3
		c0,0.3,0,0.6-0.1,0.9c-0.1,0.3-0.2,0.5-0.4,0.6C187.5,134,187.2,134.1,186.9,134.1z M186.9,133.5c0.2,0,0.3,0,0.3-0.1
		c0.1-0.1,0.1-0.2,0.1-0.4s0-0.3,0-0.5V131c0-0.2,0-0.3,0-0.5c0-0.2-0.1-0.3-0.1-0.4c-0.1-0.1-0.2-0.1-0.3-0.1c-0.2,0-0.3,0-0.4,0.1
		s-0.1,0.2-0.1,0.4c0,0.2,0,0.3,0,0.5v1.4c0,0.2,0,0.3,0,0.5s0.1,0.3,0.1,0.4S186.7,133.5,186.9,133.5z"/>
	<path fill="#B0ADA3" d="M189.1,134v-6.5h0.9v6.5H189.1z"/>
</g>
<g>
	<defs>
		<rect id="SVGID_5_" width="800" height="229"/>
	</defs>
	<clipPath id="SVGID_6_">
		<use xlink:href="#SVGID_5_"  overflow="visible"/>
	</clipPath>
	
		<path clip-path="url(#SVGID_6_)" fill="none" stroke="#B0ADA3" stroke-width="0.5" stroke-linejoin="round" stroke-dasharray="1.559,1.059" d="
		M333,137.3c-1.5,0.6-2.6,1.8-3,3.4"/>
	
		<line clip-path="url(#SVGID_6_)" fill="none" stroke="#B0ADA3" stroke-width="0.5" stroke-linejoin="round" stroke-dasharray="1.469,0.969" x1="329.8" y1="143.7" x2="329.8" y2="160.3"/>
	
		<path clip-path="url(#SVGID_6_)" fill="none" stroke="#B0ADA3" stroke-width="0.5" stroke-linejoin="round" stroke-dasharray="1.559,1.059" d="
		M330.2,163.3c0.6,1.5,1.8,2.6,3.4,3"/>
	
		<line clip-path="url(#SVGID_6_)" fill="none" stroke="#B0ADA3" stroke-width="0.5" stroke-linejoin="round" stroke-dasharray="1.571,1.071" x1="336.7" y1="166.5" x2="341.4" y2="166.5"/>
	
		<path clip-path="url(#SVGID_6_)" fill="none" stroke="#B0ADA3" stroke-width="0.5" stroke-linejoin="round" stroke-dasharray="1.559,1.059" d="
		M344.5,166.1c1.5-0.6,2.6-1.8,3-3.4"/>
	
		<line clip-path="url(#SVGID_6_)" fill="none" stroke="#B0ADA3" stroke-width="0.5" stroke-linejoin="round" stroke-dasharray="1.469,0.969" x1="347.8" y1="159.8" x2="347.8" y2="143.2"/>
	
		<path clip-path="url(#SVGID_6_)" fill="none" stroke="#B0ADA3" stroke-width="0.5" stroke-linejoin="round" stroke-dasharray="1.559,1.059" d="
		M347.4,140.2c-0.6-1.5-1.8-2.6-3.4-3"/>
	
		<line clip-path="url(#SVGID_6_)" fill="none" stroke="#B0ADA3" stroke-width="0.5" stroke-linejoin="round" stroke-dasharray="1.571,1.071" x1="340.9" y1="137" x2="336.1" y2="137"/>
	<path clip-path="url(#SVGID_6_)" fill="none" stroke="#B0ADA3" stroke-width="0.5" stroke-linejoin="round" d="M335.6,137h-0.8
		c-0.3,0-0.5,0-0.8,0.1 M343.5,137c-0.3,0-0.5-0.1-0.8-0.1H342 M347.8,142.7V142c0-0.3,0-0.5-0.1-0.8 M347.7,162.3
		c0-0.3,0.1-0.5,0.1-0.8v-0.7 M342,166.5h0.8c0.3,0,0.5,0,0.8-0.1 M334,166.4c0.3,0,0.5,0.1,0.8,0.1h0.8 M329.8,160.7v0.7
		c0,0.3,0,0.5,0.1,0.8 M329.9,141.2c0,0.3-0.1,0.5-0.1,0.8v0.7"/>
</g>
<g>
	<path fill="#B0ADA3" d="M335,134.1c-0.2,0-0.4,0-0.6-0.1c-0.1-0.1-0.3-0.2-0.3-0.4c-0.1-0.2-0.1-0.4-0.1-0.6v-3h-0.5v-0.6h0.5V128
		h0.9v1.4h0.7v0.6h-0.7v3c0,0.2,0,0.3,0.1,0.4s0.2,0.1,0.3,0.1c0,0,0.1,0,0.1,0c0.1,0,0.1,0,0.2,0v0.6c-0.1,0-0.2,0-0.3,0
		S335.1,134.1,335,134.1z"/>
	<path fill="#B0ADA3" d="M337.5,134.1c-0.3,0-0.6-0.1-0.8-0.2s-0.3-0.3-0.4-0.6c-0.1-0.3-0.1-0.6-0.1-0.9V131c0-0.3,0-0.6,0.1-0.9
		c0.1-0.3,0.2-0.5,0.4-0.6c0.2-0.1,0.5-0.2,0.8-0.2s0.6,0.1,0.8,0.2c0.2,0.1,0.3,0.3,0.4,0.6c0.1,0.3,0.1,0.6,0.1,0.9v1.3
		c0,0.3,0,0.6-0.1,0.9c-0.1,0.3-0.2,0.5-0.4,0.6C338.1,134,337.8,134.1,337.5,134.1z M337.5,133.5c0.2,0,0.3,0,0.3-0.1
		c0.1-0.1,0.1-0.2,0.1-0.4s0-0.3,0-0.5V131c0-0.2,0-0.3,0-0.5c0-0.2-0.1-0.3-0.1-0.4c-0.1-0.1-0.2-0.1-0.3-0.1c-0.2,0-0.3,0-0.4,0.1
		s-0.1,0.2-0.1,0.4c0,0.2,0,0.3,0,0.5v1.4c0,0.2,0,0.3,0,0.5s0.1,0.3,0.1,0.4S337.3,133.5,337.5,133.5z"/>
	<path fill="#B0ADA3" d="M340.9,134.1c-0.3,0-0.6-0.1-0.8-0.2s-0.3-0.3-0.4-0.6c-0.1-0.3-0.1-0.6-0.1-0.9V131c0-0.3,0-0.6,0.1-0.9
		c0.1-0.3,0.2-0.5,0.4-0.6c0.2-0.1,0.5-0.2,0.8-0.2s0.6,0.1,0.8,0.2c0.2,0.1,0.3,0.3,0.4,0.6c0.1,0.3,0.1,0.6,0.1,0.9v1.3
		c0,0.3,0,0.6-0.1,0.9c-0.1,0.3-0.2,0.5-0.4,0.6C341.5,134,341.2,134.1,340.9,134.1z M340.9,133.5c0.2,0,0.3,0,0.3-0.1
		c0.1-0.1,0.1-0.2,0.1-0.4s0-0.3,0-0.5V131c0-0.2,0-0.3,0-0.5c0-0.2-0.1-0.3-0.1-0.4c-0.1-0.1-0.2-0.1-0.3-0.1c-0.2,0-0.3,0-0.4,0.1
		s-0.1,0.2-0.1,0.4c0,0.2,0,0.3,0,0.5v1.4c0,0.2,0,0.3,0,0.5s0.1,0.3,0.1,0.4S340.7,133.5,340.9,133.5z"/>
	<path fill="#B0ADA3" d="M343.1,134v-6.5h0.9v6.5H343.1z"/>
</g>
</svg>
